<?xml version="1.0" standalone="no"?>
<!DOCTYPE svg PUBLIC "-//W3C//DTD SVG 20010904//EN"
 "http://www.w3.org/TR/2001/REC-SVG-20010904/DTD/svg10.dtd">
<svg version="1.0" xmlns="http://www.w3.org/2000/svg"
 width="558.000000pt" height="558.000000pt" viewBox="0 0 558.000000 558.000000"
 preserveAspectRatio="xMidYMid meet">
<metadata>
Created by potrace 1.11, written by Peter Selinger 2001-2013
</metadata>
<g transform="translate(0.000000,558.000000) scale(0.100000,-0.100000)"
fill="#000000" stroke="none">
<path d="M2304 3996 c-120 -53 -175 -329 -84 -426 61 -65 145 -29 202 87 30
61 33 76 33 158 0 103 -19 156 -66 180 -34 18 -45 18 -85 1z"/>
<path d="M1837 3989 c-23 -14 -53 -75 -61 -127 -20 -128 63 -302 152 -318 98
-19 149 110 106 271 -35 138 -124 216 -197 174z"/>
<path d="M2600 3656 c-119 -65 -123 -316 -5 -316 91 0 171 155 135 264 -20 61
-74 82 -130 52z"/>
<path d="M1528 3643 c-45 -52 -50 -122 -14 -198 44 -96 120 -132 171 -81 79
79 3 296 -104 296 -24 0 -44 -7 -53 -17z"/>
<path d="M2011 3384 c-126 -45 -229 -165 -267 -314 -23 -91 -12 -209 23 -245
32 -31 66 -32 183 -5 109 25 203 25 325 0 129 -27 146 -26 179 9 54 56 53 217
-3 337 -84 180 -276 275 -440 218z"/>
<path d="M2794 2916 c-48 -21 -77 -91 -77 -180 1 -128 60 -246 138 -275 33
-13 40 -13 70 4 135 72 74 415 -80 458 -11 4 -34 0 -51 -7z"/>
<path d="M3211 2881 c-57 -57 -85 -136 -86 -241 0 -94 16 -135 67 -173 24 -18
32 -19 67 -8 131 39 198 320 104 432 -21 24 -32 29 -69 29 -38 0 -49 -5 -83
-39z"/>
<path d="M2487 2579 c-30 -17 -50 -71 -50 -130 2 -154 149 -262 213 -156 72
118 -58 347 -163 286z"/>
<path d="M3549 2575 c-33 -18 -77 -82 -91 -131 -5 -21 -24 -59 -41 -84 -32
-49 -107 -130 -119 -130 -4 0 -27 13 -51 30 -44 30 -139 60 -187 60 -48 0
-142 -30 -184 -59 -24 -17 -63 -51 -88 -76 l-46 -46 -74 26 c-101 37 -124 40
-153 21 -31 -20 -35 -84 -7 -108 19 -17 145 -68 166 -68 11 0 12 -10 4 -47
-11 -57 -1 -157 18 -195 8 -15 24 -32 35 -39 23 -12 101 -6 209 17 92 19 191
17 305 -6 76 -16 104 -19 130 -10 31 10 39 21 64 83 23 58 7 187 -33 264 l-16
33 60 61 c33 33 60 65 60 70 0 5 11 9 25 9 121 0 203 223 115 312 -31 31 -61
35 -101 13z"/>
</g>
</svg>
